<svg version="1.1" xmlns="http://www.w3.org/2000/svg" xmlns:xlink="http://www.w3.org/1999/xlink" width="265.77246" height="159.672" viewBox="0,0,265.77246,159.672"><defs><linearGradient x1="107.1164" y1="180.00058" x2="372.88594" y2="180.00058" gradientUnits="userSpaceOnUse" id="color-1"><stop offset="0.012" stop-color="#66b3e3"/><stop offset="1" stop-color="#1c75bc"/></linearGradient></defs><g transform="translate(-107.11377,-100.164)"><g data-paper-data="{&quot;isPaintingLayer&quot;:true}" fill-rule="nonzero" stroke="none" stroke-width="1" stroke-linecap="butt" stroke-linejoin="miter" stroke-miterlimit="10" stroke-dasharray="" stroke-dashoffset="0" style="mix-blend-mode: normal"><path d="M372.88623,234.70472c0,13.87843 -11.25578,25.13128 -25.13128,25.13128h-215.51281c-13.87843,0 -25.12836,-11.25578 -25.12836,-25.13128v-109.41235c0,-13.87843 11.24994,-25.12836 25.12836,-25.12836h215.50989c13.88427,0 25.13128,11.24994 25.13128,25.12836v109.41235z" fill="url(#color-1)"/><path d="M362.91257,125.29236v109.40943c0,8.3586 -6.79611,15.15763 -15.16055,15.15763h-215.50989c-8.35568,0 -15.15763,-6.79903 -15.15763,-15.15763v-109.41235c0,-8.3586 6.80195,-15.15763 15.15763,-15.15763h215.50989c8.36444,0 15.16055,6.80195 15.16055,15.16055z" fill="#27aae1"/><text transform="translate(128.19443,162.07026) scale(1.32489,1.32489)" font-size="40" xml:space="preserve" fill="#ffffff" fill-rule="nonzero" stroke="none" stroke-width="1" stroke-linecap="butt" stroke-linejoin="miter" stroke-miterlimit="10" stroke-dasharray="" stroke-dashoffset="0" font-family="Sans Serif" font-weight="normal" text-anchor="start" style="mix-blend-mode: normal"><tspan x="0" dy="0">Change</tspan><tspan x="0" dy="46.15px">Difficulty</tspan></text></g></g></svg>