<svg version="1.1" xmlns="http://www.w3.org/2000/svg" xmlns:xlink="http://www.w3.org/1999/xlink" width="66.42126" height="129.37498" viewBox="0,0,66.42126,129.37498"><g transform="translate(-206.78937,-88.87502)"><g data-paper-data="{&quot;isPaintingLayer&quot;:true}" stroke-miterlimit="10" stroke-dasharray="" stroke-dashoffset="0" style="mix-blend-mode: normal"><path d="M211.03937,214v-68h57.92126v68z" fill="none" fill-rule="nonzero" stroke="#ff7b00" stroke-width="8.5" stroke-linecap="butt" stroke-linejoin="miter"/><g fill="none" fill-rule="evenodd" stroke="#ff5600" stroke-width="5" stroke-linecap="round" stroke-linejoin="round"><path d="M234.86363,141.51456c4.2665,-4.37335 6.29823,-7.79563 6.09521,-10.26684c-0.30453,-3.70681 -6.3283,-7.91969 -6.37397,-10.69362c-0.04567,-2.77392 6.20672,-6.25896 6.0638,-9.68836c-0.11379,-2.7304 -5.18907,-2.98564 -5.0382,-5.81855c0.15087,-2.83291 2.78784,-3.01524 3.59915,-5.68949c0.81131,-2.67425 0.86206,-6.23214 0.54868,-7.98268"/><path d="M241.65758,93.44097c-1.1011,-1.16948 -1.73645,-1.85799 -1.90602,-2.06554c-0.25437,-0.31132 -1.18459,2.04463 -1.84577,2.61407"/></g><text transform="translate(212.25784,107.56747) scale(0.30084,0.30084)" font-size="40" xml:space="preserve" fill="#ffffff" fill-rule="nonzero" stroke="none" stroke-width="1" stroke-linecap="butt" stroke-linejoin="miter" stroke-miterlimit="10" stroke-dasharray="" stroke-dashoffset="0" font-family="Marker" font-weight="normal" text-anchor="start" style="mix-blend-mode: normal"><tspan x="0" dy="0">Nutrient</tspan><tspan x="0" dy="46.15px">   to </tspan><tspan x="0" dy="46.15px">   Soil</tspan></text><text transform="translate(-76.16249,57.65917) scale(0.5,0.5)" font-size="40" xml:space="preserve" fill="#ffffff" fill-rule="nonzero" stroke="none" stroke-width="1" stroke-linecap="butt" stroke-linejoin="miter" stroke-miterlimit="10" stroke-dasharray="" stroke-dashoffset="0" font-family="Marker" font-weight="normal" text-anchor="start" style="mix-blend-mode: normal"><tspan x="0" dy="0"> </tspan></text></g></g></svg>