<svg version="1.1" xmlns="http://www.w3.org/2000/svg" xmlns:xlink="http://www.w3.org/1999/xlink" width="130.12119" height="25.67602" viewBox="0,0,130.12119,25.67602"><defs><linearGradient x1="175.51852" y1="176.99998" x2="304.48146" y2="176.99998" gradientUnits="userSpaceOnUse" id="color-1"><stop offset="0" stop-color="#ff00b7"/><stop offset="1" stop-color="#ff7b00"/></linearGradient><linearGradient x1="239.99999" y1="163.90203" x2="239.99999" y2="190.09794" gradientUnits="userSpaceOnUse" id="color-2"><stop offset="0" stop-color="#ff7b00"/><stop offset="1" stop-color="#811150"/></linearGradient></defs><g transform="translate(-174.9394,-164.16174)"><g data-paper-data="{&quot;isPaintingLayer&quot;:true}" fill-rule="nonzero" stroke-linecap="butt" stroke-linejoin="miter" stroke-miterlimit="10" stroke-dasharray="" stroke-dashoffset="0" style="mix-blend-mode: normal"><path d="M265.05268,179.90251c0,0 -53.62713,0.00563 -77.98277,0.00563c-6.37992,0 -11.55139,-1.28247 -11.55139,-2.86396c0,-1.58178 5.17147,-2.86372 11.55139,-2.86372c20.41948,0 77.92006,-0.0059 77.92006,-0.0059c0,0 -3.86036,-0.96859 -21.66934,-5.38372c-4.51136,-1.11857 -4.51136,-2.9317 0,-4.04998c4.51373,-1.11828 11.82579,-1.11857 16.33622,0c14.44055,3.57974 41.44181,10.27499 41.44181,10.27499c4.51043,1.11857 4.51043,2.93194 0,4.04998c0,0 -23.30137,5.7774 -41.11014,10.19282c-4.51369,1.11909 -11.82668,1.11909 -16.33618,0c-4.51161,-1.11835 -4.51161,-2.93198 0,-4.04946c14.44077,-3.58136 21.40032,-5.30664 21.40032,-5.30664z" fill="url(#color-1)" stroke="url(#color-2)" stroke-width="1.15823"/><text transform="translate(294.86519,174.41449) rotate(-179.99532) scale(0.39385,0.19941) skewX(-0.00687)" font-size="40" xml:space="preserve" fill="#ffffff" fill-rule="nonzero" stroke="none" stroke-width="1" stroke-linecap="butt" stroke-linejoin="miter" stroke-miterlimit="10" stroke-dasharray="" stroke-dashoffset="0" font-family="Sans Serif" font-weight="normal" text-anchor="start" style="mix-blend-mode: normal"><tspan x="0" dy="0">organism dies</tspan></text></g></g></svg>