<svg version="1.1" xmlns="http://www.w3.org/2000/svg" xmlns:xlink="http://www.w3.org/1999/xlink" width="84.71157" height="72.39283" viewBox="0,0,84.71157,72.39283"><defs><linearGradient x1="183.50317" y1="177.51848" x2="219.46611" y2="177.51848" gradientUnits="userSpaceOnUse" id="color-1"><stop offset="0" stop-color="#a3ce00"/><stop offset="1" stop-color="#6ecdfd"/></linearGradient></defs><g transform="translate(-182.92405,-120.43674)"><g data-paper-data="{&quot;isPaintingLayer&quot;:true}" fill-rule="nonzero" stroke-linecap="butt" stroke-linejoin="miter" stroke-miterlimit="10" stroke-dasharray="" stroke-dashoffset="0" style="mix-blend-mode: normal"><path d="M208.4709,180.78311c0,0 -14.9546,0.00633 -21.74648,0.00633c-1.77912,0 -3.22125,-1.44246 -3.22125,-3.22125c0,-1.77912 1.44213,-3.22099 3.22125,-3.22099c5.69423,0 21.72899,-0.00665 21.72899,-0.00665c0,0 -1.07651,-1.08943 -6.04277,-6.05535c-1.25805,-1.25812 -1.25805,-3.29744 0,-4.55523c1.25871,-1.25779 3.29777,-1.25812 4.55556,0c4.02693,4.02633 11.55657,11.55683 11.55657,11.55683c1.25779,1.25812 1.25779,3.2977 0,4.55523c0,0 -6.49788,6.49815 -11.46408,11.4644c-1.2587,1.2587 -3.29802,1.2587 -4.55555,0c-1.25812,-1.25786 -1.25812,-3.29777 0,-4.55465c4.02699,-4.02816 5.96775,-5.96866 5.96775,-5.96866z" fill="url(#color-1)" stroke="#000000" stroke-width="1.15823"/><text transform="translate(215.756,176.44024) rotate(-179.71006) scale(0.17167,0.17167)" font-size="40" xml:space="preserve" fill="#000000" fill-rule="nonzero" stroke="none" stroke-width="1" stroke-linecap="butt" stroke-linejoin="miter" stroke-miterlimit="10" stroke-dasharray="" stroke-dashoffset="0" font-family="Sans Serif" font-weight="normal" text-anchor="start" style="mix-blend-mode: normal"><tspan x="0" dy="0">energy</tspan></text><text transform="translate(261.67729,141.79785) scale(0.5,0.5)" font-size="40" xml:space="preserve" fill="#000000" fill-rule="nonzero" stroke="none" stroke-width="1" stroke-linecap="butt" stroke-linejoin="miter" stroke-miterlimit="10" stroke-dasharray="" stroke-dashoffset="0" font-family="Sans Serif" font-weight="normal" text-anchor="start" style="mix-blend-mode: normal"><tspan x="0" dy="0"> </tspan></text></g></g></svg>