<svg version="1.1" xmlns="http://www.w3.org/2000/svg" xmlns:xlink="http://www.w3.org/1999/xlink" width="120" height="17" viewBox="0,0,120,17"><g transform="translate(-321,-409)"><g data-paper-data="{&quot;isPaintingLayer&quot;:true}" fill-rule="nonzero" stroke="none" stroke-width="1" stroke-linecap="butt" stroke-linejoin="miter" stroke-miterlimit="10" stroke-dasharray="" stroke-dashoffset="0" style="mix-blend-mode: normal"><g><path d="M431.81255,417.25651c0.09203,0.30697 -0.0024,0.56223 -0.2388,0.83714c-0.02565,0.02983 -0.04914,0.05586 -0.09158,0.10174c-0.07187,0.07767 -0.09376,0.1043 -0.08759,0.09161c-0.23609,0.48554 -0.44529,1.10938 -0.61364,1.8223c-0.45698,1.93575 0.46048,3.5584 2.35607,4.10795c2.05767,0.59664 4.47136,-0.53021 5.36366,-2.47481c1.0563,-2.30118 0.86056,-3.86567 -0.66844,-5.06526c-1.8713,-1.46815 -4.47439,-1.40704 -5.76002,0.16269l-0.27673,0.33787c-0.00054,0.02278 0.00856,0.05047 0.01705,0.07878zM431.10608,415.26945c0.31751,-0.38281 0.84934,-0.76977 1.31388,-0.96096c0.95961,-0.3949 2.2604,-0.40231 3.71373,-0.07008c2.79922,0.64001 4.97488,2.98224 4.86211,5.41865c-0.23528,5.09294 -6.56971,8.36758 -10.26366,4.91932c-1.7884,-1.66952 -2.17838,-3.77419 -1.23279,-6.29136c0.12487,-0.33145 0.35175,-0.79491 0.55045,-1.09977c0.22025,-0.33791 0.43128,-0.54379 0.70097,-0.62963c0.02783,-0.00886 0.05532,-0.01626 0.08245,-0.02226c-0.1856,-0.36371 -0.08533,-0.83206 0.27285,-1.26392z" fill="#000000"/><path d="M437,411.36383c0.03522,-0.12972 0.07725,-0.3243 0.14169,-0.51286c0.13849,-0.40866 0.23695,-0.81661 0.23535,-1.25008c-0.0004,-0.19033 -0.12008,-0.49089 0.24696,-0.55965c0.3142,-0.05884 0.64841,-0.09144 0.88896,0.16587c0.14209,0.15134 0.28378,0.31119 0.37664,0.4877c0.32661,0.62273 -0.11287,1.84091 -0.77529,2.19605c-0.50192,0.26901 -1.1015,0.02091 -1.11431,-0.52704" fill="#000000"/><path d="M434.59728,410.30015c-0.04964,0.30525 -0.1126,0.6098 -0.14529,0.91681c-0.04278,0.40031 -0.3834,0.5767 -0.72765,0.72106c-0.29744,0.12534 -0.57792,0.07288 -0.65057,-0.2711c-0.16547,-0.78302 -0.01412,-1.56287 0.08031,-2.33744c0.04318,-0.35736 0.6199,-0.43587 1.01298,-0.1771c0.34587,0.22815 0.45201,0.52389 0.43021,1.14777" fill="#000000"/><path d="M433.22968,420.55282c-1.52405,0.99214 -3.51698,2.41012 -5.02291,3.4188c-0.43761,0.29324 -0.77644,0.44222 -1.17789,0.76615c-0.38389,0.30974 -0.82724,0.52156 -1.16583,0.267c-0.34812,-0.26181 -0.71831,-0.37585 -0.44976,-0.85608c0.23891,-0.42768 0.53533,-0.46961 1.06649,-0.69903c1.0491,-0.45318 2.63311,-1.63029 3.55732,-2.23206c0.28401,-0.18524 0.78428,-0.57177 1.02801,-0.78755c0.6396,-0.56668 0.4897,-0.71601 -0.27059,-1.21184c-1.34003,-0.87455 -2.99179,-1.84675 -4.34182,-2.71217c-0.34567,-0.22116 -0.70087,-0.4344 -1.029,-0.67016c-0.89543,-0.64247 -0.76543,-1.37347 0.4252,-1.68901c0.27401,-0.07267 0.48103,-0.01001 0.63275,0.168c1.26329,1.48428 3.48764,2.60028 5.23678,3.66582c0.59728,0.36374 1.06058,0.76245 1.88695,0.90493c0.44588,0.07668 0.33892,0.45623 0.40125,0.89655c0.07323,0.2798 -0.37388,0.50816 -0.77696,0.77065z" fill="#000000"/><path d="M325.80556,416.71271h-2.01852v5.18785h-0.76852v-5.18785h-2.01852v-0.61326h4.80556zM330.97658,419.24033h-3.11111v2.66022h-0.76852v-5.8011h0.76852v2.52762h3.11111v-2.52762h0.76852v5.8011h-0.76852zM333.65686,416.09945h3.52778v0.61326h-2.75926v1.89779h2.52778v0.61326h-2.52778v2.06354h2.80556v0.61326h-3.57407zM341.76743,416.09945c0.11728,-0.01657 0.24846,-0.02901 0.39352,-0.03729c0.14506,-0.00829 0.2963,-0.01381 0.4537,-0.01657c0.15741,-0.00276 0.31173,-0.00552 0.46296,-0.00829c0.15124,-0.00276 0.29167,-0.00414 0.4213,-0.00414c0.51852,0 0.96759,0.07182 1.34722,0.21547c0.37963,0.14365 0.6929,0.34392 0.93981,0.60083c0.24691,0.25691 0.43056,0.56492 0.55093,0.92403c0.12037,0.35912 0.18056,0.75414 0.18056,1.18508c0,0.39227 -0.0571,0.76934 -0.1713,1.13122c-0.1142,0.36188 -0.29475,0.68232 -0.54167,0.96133c-0.24691,0.27901 -0.5679,0.50276 -0.96296,0.67127c-0.39506,0.16851 -0.87345,0.25276 -1.43519,0.25276c-0.09877,0 -0.22685,-0.00138 -0.38426,-0.00414c-0.15741,-0.00276 -0.31944,-0.00829 -0.48611,-0.01657c-0.16667,-0.00829 -0.32099,-0.01519 -0.46296,-0.02072c-0.14198,-0.00553 -0.24383,-0.01381 -0.30556,-0.02486zM343.51743,416.64641h-0.26389c-0.09568,0 -0.18981,0.00276 -0.28241,0.00829c-0.09259,0.00552 -0.17747,0.01105 -0.25463,0.01657c-0.07716,0.00552 -0.13735,0.01105 -0.18056,0.01657v4.64088c0.03086,0.00552 0.08951,0.00967 0.17593,0.01243c0.08642,0.00276 0.17593,0.00552 0.26852,0.00829c0.09259,0.00276 0.1821,0.00552 0.26852,0.00829c0.08642,0.00276 0.14506,0.00414 0.17593,0.00414c0.4321,0 0.79475,-0.0663 1.08796,-0.1989c0.29321,-0.1326 0.52778,-0.31077 0.7037,-0.53453c0.17593,-0.22376 0.30093,-0.48066 0.375,-0.77072c0.07407,-0.29006 0.11111,-0.58978 0.11111,-0.89917c0,-0.27072 -0.03395,-0.54282 -0.10185,-0.8163c-0.0679,-0.27348 -0.18518,-0.52072 -0.35185,-0.74171c-0.16667,-0.221 -0.39043,-0.40193 -0.6713,-0.54282c-0.28087,-0.14088 -0.63426,-0.21133 -1.06019,-0.21133zM347.89216,419c0,-0.96686 0.22839,-1.70856 0.68519,-2.22514c0.45679,-0.51658 1.10802,-0.77486 1.9537,-0.77486c0.45679,0 0.85185,0.07182 1.18519,0.21547c0.33333,0.14365 0.60957,0.34668 0.8287,0.60912c0.21914,0.26243 0.38117,0.57735 0.48611,0.94475c0.10494,0.36741 0.15741,0.77762 0.15741,1.23066c0,0.96686 -0.22994,1.70856 -0.68981,2.22514c-0.45988,0.51658 -1.11574,0.77486 -1.96759,0.77486c-0.45062,0 -0.84105,-0.07182 -1.1713,-0.21547c-0.33025,-0.14365 -0.60494,-0.34668 -0.82407,-0.60912c-0.21914,-0.26243 -0.38117,-0.57735 -0.48611,-0.94475c-0.10494,-0.36741 -0.15741,-0.77762 -0.15741,-1.23066zM348.70697,419c0,0.32044 0.03549,0.62431 0.10648,0.9116c0.07099,0.28729 0.18055,0.54005 0.3287,0.75829c0.14815,0.21823 0.33796,0.39226 0.56944,0.5221c0.23148,0.12983 0.50463,0.19475 0.81944,0.19475c0.57408,0 1.02469,-0.19475 1.35185,-0.58425c0.32716,-0.3895 0.49074,-0.99033 0.49074,-1.80249c0,-0.31492 -0.03549,-0.6174 -0.10648,-0.90746c-0.07099,-0.29006 -0.1821,-0.5442 -0.33333,-0.76243c-0.15124,-0.21823 -0.34259,-0.39226 -0.57407,-0.5221c-0.23148,-0.12983 -0.50771,-0.19475 -0.8287,-0.19475c-0.5679,0 -1.01389,0.19475 -1.33796,0.58425c-0.32408,0.3895 -0.48611,0.99033 -0.48611,1.80249zM354.56318,419c0,-0.96686 0.22839,-1.70856 0.68519,-2.22514c0.45679,-0.51658 1.10802,-0.77486 1.9537,-0.77486c0.45679,0 0.85185,0.07182 1.18519,0.21547c0.33333,0.14365 0.60957,0.34668 0.8287,0.60912c0.21914,0.26243 0.38117,0.57735 0.48611,0.94475c0.10494,0.36741 0.15741,0.77762 0.15741,1.23066c0,0.96686 -0.22994,1.70856 -0.68981,2.22514c-0.45988,0.51658 -1.11574,0.77486 -1.96759,0.77486c-0.45062,0 -0.84105,-0.07182 -1.1713,-0.21547c-0.33025,-0.14365 -0.60494,-0.34668 -0.82407,-0.60912c-0.21914,-0.26243 -0.38117,-0.57735 -0.48611,-0.94475c-0.10494,-0.36741 -0.15741,-0.77762 -0.15741,-1.23066zM355.378,419c0,0.32044 0.03549,0.62431 0.10648,0.9116c0.07099,0.28729 0.18056,0.54005 0.3287,0.75829c0.14815,0.21823 0.33796,0.39226 0.56944,0.5221c0.23148,0.12983 0.50463,0.19475 0.81944,0.19475c0.57408,0 1.02469,-0.19475 1.35185,-0.58425c0.32716,-0.3895 0.49074,-0.99033 0.49074,-1.80249c0,-0.31492 -0.03549,-0.6174 -0.10648,-0.90746c-0.07099,-0.29006 -0.1821,-0.5442 -0.33333,-0.76243c-0.15124,-0.21823 -0.34259,-0.39226 -0.57407,-0.5221c-0.23148,-0.12983 -0.50771,-0.19475 -0.8287,-0.19475c-0.5679,0 -1.01389,0.19475 -1.33796,0.58425c-0.32408,0.3895 -0.48611,0.99033 -0.48611,1.80249zM361.50272,416.09945c0.11728,-0.01657 0.24846,-0.02901 0.39352,-0.03729c0.14506,-0.00829 0.2963,-0.01381 0.4537,-0.01657c0.15741,-0.00276 0.31173,-0.00552 0.46296,-0.00829c0.15124,-0.00276 0.29167,-0.00414 0.4213,-0.00414c0.51852,0 0.96759,0.07182 1.34722,0.21547c0.37963,0.14365 0.6929,0.34392 0.93981,0.60083c0.24691,0.25691 0.43056,0.56492 0.55093,0.92403c0.12037,0.35912 0.18056,0.75414 0.18056,1.18508c0,0.39227 -0.0571,0.76934 -0.1713,1.13122c-0.1142,0.36188 -0.29475,0.68232 -0.54167,0.96133c-0.24692,0.27901 -0.5679,0.50276 -0.96296,0.67127c-0.39506,0.16851 -0.87345,0.25276 -1.43519,0.25276c-0.09877,0 -0.22685,-0.00138 -0.38426,-0.00414c-0.15741,-0.00276 -0.31944,-0.00829 -0.48611,-0.01657c-0.16667,-0.00829 -0.32099,-0.01519 -0.46296,-0.02072c-0.14198,-0.00553 -0.24383,-0.01381 -0.30556,-0.02486zM363.25272,416.64641h-0.26389c-0.09568,0 -0.18981,0.00276 -0.28241,0.00829c-0.09259,0.00552 -0.17747,0.01105 -0.25463,0.01657c-0.07716,0.00552 -0.13735,0.01105 -0.18056,0.01657v4.64088c0.03086,0.00552 0.08951,0.00967 0.17593,0.01243c0.08642,0.00276 0.17593,0.00552 0.26852,0.00829c0.09259,0.00276 0.1821,0.00552 0.26852,0.00829c0.08642,0.00276 0.14506,0.00414 0.17593,0.00414c0.4321,0 0.79475,-0.0663 1.08796,-0.1989c0.29321,-0.1326 0.52778,-0.31077 0.7037,-0.53453c0.17593,-0.22376 0.30093,-0.48066 0.375,-0.77072c0.07407,-0.29006 0.11111,-0.58978 0.11111,-0.89917c0,-0.27072 -0.03395,-0.54282 -0.10185,-0.8163c-0.0679,-0.27348 -0.18518,-0.52072 -0.35185,-0.74171c-0.16667,-0.221 -0.39043,-0.40193 -0.6713,-0.54282c-0.28087,-0.14088 -0.63426,-0.21133 -1.06019,-0.21133zM371.7293,421.90055h-3.83333v-5.8011h0.76852v5.18785h3.06481zM373.0207,416.09945h3.52778v0.61326h-2.75926v1.89779h2.52778v0.61326h-2.52778v2.06354h2.80556v0.61326h-3.57407zM384.9646,421.90055h-3.83333v-5.8011h0.76852v5.18785h3.06481zM386.43192,416.09945h0.76852v5.8011h-0.76852zM393.19553,417.42541c0,0.13812 -0.02469,0.279 -0.07407,0.42265c-0.04938,0.14365 -0.12346,0.27762 -0.22222,0.40193c-0.09877,0.12431 -0.22531,0.23342 -0.37963,0.32735c-0.15432,0.09392 -0.33642,0.16575 -0.5463,0.21547v0.03315c0.18519,0.02762 0.36265,0.07459 0.53241,0.14088c0.16975,0.0663 0.31944,0.15746 0.44907,0.27348c0.12963,0.11602 0.23457,0.25691 0.31481,0.42265c0.08025,0.16575 0.12037,0.36188 0.12037,0.5884c0,0.29834 -0.06944,0.55663 -0.20833,0.77486c-0.13889,0.21823 -0.32099,0.39641 -0.5463,0.53453c-0.22531,0.13812 -0.48302,0.24033 -0.77315,0.30663c-0.29012,0.0663 -0.58642,0.09945 -0.88889,0.09945h-0.37037c-0.14198,0 -0.29012,-0.00414 -0.44444,-0.01243c-0.15432,-0.00829 -0.30864,-0.01934 -0.46296,-0.03315c-0.15432,-0.01381 -0.29012,-0.03453 -0.40741,-0.06215v-5.70994c0.2284,-0.03315 0.49383,-0.06077 0.7963,-0.08287c0.30247,-0.0221 0.63271,-0.03315 0.99074,-0.03315c0.24074,0 0.48611,0.01796 0.73611,0.05387c0.25,0.03591 0.47685,0.10497 0.68056,0.20718c0.2037,0.10221 0.37191,0.24447 0.50463,0.4268c0.13272,0.18232 0.19907,0.41713 0.19907,0.70442zM391.04739,421.37017c0.19753,0 0.38889,-0.02072 0.57407,-0.06215c0.18519,-0.04144 0.34876,-0.10773 0.49074,-0.19889c0.14198,-0.09116 0.25463,-0.20304 0.33796,-0.33564c0.08333,-0.1326 0.125,-0.29005 0.125,-0.47238c0,-0.22652 -0.05093,-0.40884 -0.15278,-0.54696c-0.10185,-0.13812 -0.23457,-0.24586 -0.39815,-0.3232c-0.16358,-0.07735 -0.34722,-0.12983 -0.55093,-0.15746c-0.2037,-0.02762 -0.40741,-0.04144 -0.61111,-0.04144h-0.80556v2.08011c0.04321,0.01105 0.10494,0.01934 0.18519,0.02486c0.08025,0.00552 0.16667,0.01105 0.25926,0.01657c0.09259,0.00552 0.18827,0.00967 0.28704,0.01243c0.09877,0.00276 0.18519,0.00414 0.25926,0.00414zM390.53813,418.65193c0.10494,0 0.23148,-0.00276 0.37963,-0.00829c0.14815,-0.00552 0.2716,-0.01381 0.37037,-0.02486c0.14815,-0.0442 0.28704,-0.09807 0.41667,-0.1616c0.12963,-0.06354 0.24537,-0.13812 0.34722,-0.22376c0.10185,-0.08564 0.1821,-0.18508 0.24074,-0.29834c0.05864,-0.11326 0.08796,-0.23619 0.08796,-0.36878c0,-0.18232 -0.03858,-0.33287 -0.11574,-0.45166c-0.07716,-0.11879 -0.18055,-0.21409 -0.31019,-0.28591c-0.12963,-0.07182 -0.27778,-0.12293 -0.44444,-0.15331c-0.16667,-0.03039 -0.33642,-0.04558 -0.50926,-0.04558c-0.2037,0 -0.39043,0.00414 -0.56019,0.01243c-0.16975,0.00829 -0.29784,0.02072 -0.38426,0.03729v1.97238zM395.03322,416.15746c0.23457,-0.03867 0.50463,-0.06906 0.81019,-0.09116c0.30556,-0.0221 0.58488,-0.03315 0.83796,-0.03315c0.28395,0 0.55401,0.02762 0.81019,0.08287c0.25617,0.05525 0.48148,0.14641 0.67593,0.27348c0.19445,0.12707 0.35031,0.29282 0.46759,0.49724c0.11728,0.20442 0.17593,0.45304 0.17593,0.74586c0,0.45304 -0.13889,0.82044 -0.41667,1.10221c-0.27778,0.28177 -0.62963,0.46961 -1.05556,0.56354l0.44444,0.30663l1.61111,2.29558h-0.89815l-1.78704,-2.50276l-0.90741,-0.12431v2.62707h-0.76852zM396.69989,416.62983h-0.25c-0.08642,0 -0.16975,0.00276 -0.25,0.00829c-0.08025,0.00552 -0.15586,0.01105 -0.22685,0.01657c-0.07099,0.00552 -0.12809,0.01381 -0.1713,0.02486v2.13812h0.72222c0.42593,0 0.77778,-0.09392 1.05556,-0.28177c0.27778,-0.18785 0.41667,-0.48066 0.41667,-0.87845c0,-0.29834 -0.1142,-0.5442 -0.34259,-0.73757c-0.2284,-0.19337 -0.54629,-0.29006 -0.9537,-0.29006zM403.72277,420.29282h-2.38889l-0.64815,1.60773h-0.75926l2.4537,-5.89227h0.35185l2.46296,5.89227h-0.80556zM401.58388,419.69613h1.90741l-0.72222,-1.76519l-0.23148,-0.87845h-0.00926l-0.23148,0.89503zM406.39379,416.15746c0.23457,-0.03867 0.50463,-0.06906 0.81019,-0.09116c0.30556,-0.0221 0.58488,-0.03315 0.83796,-0.03315c0.28395,0 0.55401,0.02762 0.81019,0.08287c0.25617,0.05525 0.48148,0.14641 0.67593,0.27348c0.19445,0.12707 0.35031,0.29282 0.46759,0.49724c0.11728,0.20442 0.17593,0.45304 0.17593,0.74586c0,0.45304 -0.13889,0.82044 -0.41667,1.10221c-0.27778,0.28177 -0.62963,0.46961 -1.05556,0.56354l0.44444,0.30663l1.61111,2.29558h-0.89815l-1.78704,-2.50276l-0.90741,-0.12431v2.62707h-0.76852zM408.06046,416.62983h-0.25c-0.08642,0 -0.16975,0.00276 -0.25,0.00829c-0.08025,0.00552 -0.15586,0.01105 -0.22685,0.01657c-0.07099,0.00552 -0.12809,0.01381 -0.1713,0.02486v2.13812h0.72222c0.42593,0 0.77778,-0.09392 1.05556,-0.28177c0.27778,-0.18785 0.41667,-0.48066 0.41667,-0.87845c0,-0.29834 -0.1142,-0.5442 -0.34259,-0.73757c-0.2284,-0.19337 -0.54629,-0.29006 -0.9537,-0.29006zM413.11111,419.59669l-2.13889,-3.49724h0.89815l1.51852,2.53591l0.15741,0.50552h0.00926l0.16667,-0.5221l1.4537,-2.51934h0.82407l-2.12037,3.48895v2.31215h-0.76852z" fill="#666666" opacity="0.59528"/></g></g></g></svg>