<svg version="1.1" xmlns="http://www.w3.org/2000/svg" xmlns:xlink="http://www.w3.org/1999/xlink" width="332.7006" height="221.63363" viewBox="0,0,332.7006,221.63363"><defs><linearGradient x1="290.31771" y1="362.58837" x2="290.31771" y2="392.05191" gradientUnits="userSpaceOnUse" id="color-1"><stop offset="0" stop-color="#ffffff"/><stop offset="1" stop-color="#811150"/></linearGradient><linearGradient x1="373.39579" y1="355.57636" x2="373.39579" y2="385.03989" gradientUnits="userSpaceOnUse" id="color-2"><stop offset="0" stop-color="#ffffff"/><stop offset="1" stop-color="#811150"/></linearGradient><linearGradient x1="374.41484" y1="371.05912" x2="367.05213" y2="399.58788" gradientUnits="userSpaceOnUse" id="color-3"><stop offset="0" stop-color="#ffffff"/><stop offset="1" stop-color="#811150"/></linearGradient><linearGradient x1="112.94724" y1="224.56676" x2="83.52153" y2="226.05922" gradientUnits="userSpaceOnUse" id="color-4"><stop offset="0" stop-color="#ffffff"/><stop offset="1" stop-color="#811150"/></linearGradient><linearGradient x1="271.30428" y1="-100.85417" x2="269.86751" y2="-130.28265" gradientUnits="userSpaceOnUse" id="color-5"><stop offset="0" stop-color="#ffffff"/><stop offset="1" stop-color="#811150"/></linearGradient><linearGradient x1="304.25974" y1="-107.77489" x2="313.49748" y2="-135.75281" gradientUnits="userSpaceOnUse" id="color-6"><stop offset="0" stop-color="#ffffff"/><stop offset="1" stop-color="#811150"/></linearGradient><linearGradient x1="210.7081" y1="346.04182" x2="210.7081" y2="375.50536" gradientUnits="userSpaceOnUse" id="color-7"><stop offset="0" stop-color="#ffffff"/><stop offset="1" stop-color="#811150"/></linearGradient></defs><g transform="translate(-106.92403,-14.94295)"><g data-paper-data="{&quot;isPaintingLayer&quot;:true}" fill-rule="nonzero" stroke-linecap="butt" stroke-linejoin="miter" stroke-miterlimit="10" stroke-dasharray="" stroke-dashoffset="0" style="mix-blend-mode: normal"><path d="M137.4024,91.96096v-65h61v65z" fill="none" stroke="#ffffff" stroke-width="8"/><path d="M218.97898,113.47748v-65h61v65z" fill="none" stroke="#ffffff" stroke-width="8"/><path d="M297.55256,83.94295v-65h61v65z" fill="none" stroke="#ffffff" stroke-width="8"/><path d="M374.62463,112.96697v-65h61v65z" fill="none" stroke="#ffffff" stroke-width="8"/><path d="M373.61862,208.05706v-65h61v65z" fill="none" stroke="#ffffff" stroke-width="8"/><path d="M297.53754,232.57658v-65h61v65z" fill="none" stroke="#ffffff" stroke-width="8"/><path d="M219.95496,210.54955v-65h61v65z" fill="none" stroke="#ffffff" stroke-width="8"/><path d="M212.08048,72.32966c0,0 -14.9546,0.00633 -21.74648,0.00633c-1.77912,0 -3.22125,-1.44246 -3.22125,-3.22125c0,-1.77912 1.44213,-3.22099 3.22125,-3.22099c5.69423,0 21.72899,-0.00665 21.72899,-0.00665c0,0 -1.07651,-1.08943 -6.04277,-6.05535c-1.25805,-1.25812 -1.25805,-3.29744 0,-4.55523c1.2587,-1.25779 3.29777,-1.25812 4.55556,0c4.02693,4.02633 11.55657,11.55683 11.55657,11.55683c1.25779,1.25812 1.25779,3.2977 0,4.55523c0,0 -6.49788,6.49815 -11.46408,11.4644c-1.2587,1.2587 -3.29802,1.2587 -4.55555,0c-1.25812,-1.25786 -1.25812,-3.29777 0,-4.55465c4.02699,-4.02816 5.96775,-5.96866 5.96775,-5.96866z" fill="url(#color-1)" stroke="#000000" stroke-width="1.15823"/><path d="M295.15856,65.31764c0,0 -14.9546,0.00633 -21.74648,0.00633c-1.77912,0 -3.22125,-1.44246 -3.22125,-3.22125c0,-1.77912 1.44213,-3.22099 3.22125,-3.22099c5.69423,0 21.72899,-0.00665 21.72899,-0.00665c0,0 -1.07651,-1.08943 -6.04276,-6.05535c-1.25805,-1.25812 -1.25805,-3.29744 0,-4.55523c1.2587,-1.25779 3.29777,-1.25812 4.55556,0c4.02693,4.02633 11.55657,11.55683 11.55657,11.55683c1.25779,1.25812 1.25779,3.2977 0,4.55523c0,0 -6.49788,6.49815 -11.46407,11.4644c-1.25871,1.25871 -3.29803,1.25871 -4.55556,0c-1.25812,-1.25786 -1.25812,-3.29777 0,-4.55465c4.02699,-4.02816 5.96775,-5.96866 5.96775,-5.96866z" fill="url(#color-2)" stroke="#000000" stroke-width="1.15823"/><path d="M371.19318,70.45838c0,0 -14.48173,-3.73091 -21.05812,-5.42815c-1.72268,-0.44459 -2.75859,-2.20166 -2.31409,-3.92402c0.44459,-1.72268 2.20128,-2.75842 3.92395,-2.31383c5.51358,1.42294 21.04128,5.42346 21.04128,5.42346c0,0 -0.77012,-1.32388 -4.33786,-7.37328c-0.90374,-1.53258 -0.39413,-3.5072 1.13832,-4.41071c1.53308,-0.90334 3.50754,-0.39411 4.41103,1.1384c2.89302,4.90489 8.30196,14.07807 8.30196,14.07807c0.90349,1.53251 0.39382,3.50739 -1.13832,4.41071c0,0 -7.91557,4.66821 -13.96523,8.23589c-1.53331,0.90423 -3.50793,0.39462 -4.41102,-1.1384c-0.90387,-1.53234 -0.39411,-3.50754 1.13817,-4.41014c4.90583,-2.89405 7.26994,-4.288 7.26994,-4.288z" fill="url(#color-3)" stroke="#000000" stroke-width="1.15823"/><path d="M398.87028,131.72711c0,0 -0.76383,-14.93508 -1.10787,-21.71824c-0.09012,-1.77684 1.27744,-3.29018 3.05394,-3.38029c1.77684,-0.09012 3.28991,1.27712 3.38003,3.05396c0.28844,5.68692 1.10731,21.70076 1.10731,21.70076c0,0 1.0335,-1.13031 5.74149,-6.34174c1.19277,-1.32016 3.22948,-1.42346 4.54938,-0.23074c1.31993,1.19338 1.42355,3.22981 0.23076,4.54971c-3.81718,4.22571 -10.9566,12.12714 -10.9566,12.12714c-1.19279,1.3199 -3.22975,1.42322 -4.54938,0.23074c0,0 -6.81895,-6.16038 -12.03039,-10.86864c-1.32085,-1.19333 -1.42415,-3.23003 -0.23076,-4.54971c1.19251,-1.32022 3.22981,-1.42355 4.5488,-0.23071c4.22697,3.81778 6.26329,5.65775 6.26329,5.65775z" fill="url(#color-4)" stroke="#000000" stroke-width="1.15823"/><path d="M363.60274,185.24403c0,0 14.9365,-0.73557 21.7203,-1.06677c1.777,-0.08676 3.28776,1.28366 3.3745,3.06034c0.08676,1.777 -1.28334,3.28748 -3.06035,3.37424c-5.68746,0.27768 -21.70282,1.06625 -21.70282,1.06625c0,0 1.12835,1.03564 6.33086,5.75348c1.3179,1.19527 1.41735,3.23217 0.22213,4.54981c-1.19587,1.31767 -3.2325,1.41743 -4.55014,0.22215c-4.21848,-3.82517 -12.10638,-10.97953 -12.10638,-10.97953c-1.31764,-1.19528 -1.4171,-3.23244 -0.22213,-4.54981c0,0 6.17328,-6.80728 10.89138,-12.0098c1.19583,-1.31859 3.23272,-1.41803 4.55014,-0.22215c1.31796,1.19501 1.41743,3.2325 0.2221,4.54923c-3.82577,4.21974 -5.66959,6.25257 -5.66959,6.25257z" fill="url(#color-5)" stroke="#000000" stroke-width="1.15823"/><path d="M287.54687,192.37818c0,0 14.20254,4.68273 20.65196,6.8122c1.68941,0.55781 2.60657,2.37969 2.04886,4.06879c-0.55781,1.68941 -2.3793,2.60643 -4.06871,2.04862c-5.40712,-1.78532 -20.63546,-6.8064 -20.63546,-6.8064c0,0 0.68066,1.37202 3.83953,7.64463c0.80016,1.58912 0.16077,3.52561 -1.42821,4.32555c-1.58959,0.79973 -3.52595,0.16072 -4.32586,-1.42831c-2.5615,-5.08589 -7.35043,-14.59746 -7.35043,-14.59746c-0.79991,-1.58903 -0.16044,-3.52578 1.42821,-4.32555c0,0 8.20762,-4.1332 14.48048,-7.29199c1.58988,-0.80059 3.52637,-0.1612 4.32585,1.42831c0.8003,1.58889 0.16072,3.52595 -1.42802,4.32499c-5.08689,2.56246 -7.53821,3.79663 -7.53821,3.79663z" fill="url(#color-6)" stroke="#000000" stroke-width="1.15823"/><path d="M132.47088,55.78311c0,0 -14.9546,0.00633 -21.74648,0.00633c-1.77912,0 -3.22125,-1.44246 -3.22125,-3.22125c0,-1.77912 1.44213,-3.22099 3.22125,-3.22099c5.69423,0 21.72899,-0.00665 21.72899,-0.00665c0,0 -1.07651,-1.08943 -6.04277,-6.05535c-1.25805,-1.25812 -1.25805,-3.29744 0,-4.55523c1.25871,-1.25779 3.29777,-1.25812 4.55556,0c4.02693,4.02633 11.55657,11.55683 11.55657,11.55683c1.25779,1.25812 1.25779,3.2977 0,4.55523c0,0 -6.49788,6.49815 -11.46408,11.4644c-1.2587,1.2587 -3.29802,1.2587 -4.55555,0c-1.25812,-1.25786 -1.25812,-3.29777 0,-4.55465c4.02699,-4.02816 5.96775,-5.96866 5.96775,-5.96866z" fill="url(#color-7)" stroke="#000000" stroke-width="1.15823"/></g></g></svg>